<?xml version="1.0" encoding="UTF-8"?>
<!DOCTYPE svg  PUBLIC '-//W3C//DTD SVG 1.1//EN'  'http://www.w3.org/Graphics/SVG/1.1/DTD/svg11.dtd' [
	<!ENTITY ns_flows "http://ns.adobe.com/Flows/1.0/">
]>
<svg width="194px" height="101px" enable-background="new -0.262 -0.031 194 101" version="1.1" viewBox="-.262 -.031 194 101" xml:space="preserve" xmlns="http://www.w3.org/2000/svg">

<path d="m37.68 15.143c2.682-8.818 11.352-13.979 20.102-15.06 6.979-0.42 14.561 0.67 20.08 5.31 3.789 2.91 5.238 7.67 6.549 12.062 2.142 0 4.291 0.05 6.439 0.2 0.359-5.65 5.2-9.92 10.222-11.762 3.109-1.27 6.068 0.5 8.789 1.83 2.313-1.12 4.359-3.25 7.15-2.858 2.391-0.271 4.789 2.028 7.061 0.68 3.369-1.87 7.729-2.45 11.102-0.26 3.527 1.648 4.729 5.66 5.648 9.13 7.08-2.47 15.568-2.99 21.818 1.85 1.83-0.81 3.641-1.67 5.451-2.54 1.311-6.05 7.959-10.02 13.898-8.46 6.568 1.41 10.818 9.7 6.551 15.45 1.02 3.5 1.301 7.24-0.041 10.71 2.641 2.62 5.512 5.79 4.891 9.83 0.49 5.47-3.561 9.82-7.738 12.699 2.68 4.08 1.029 8.971 2.578 13.341 1.012 4.2 0.23 9.05-3.148 12.021-4.641 4.961-12 4.229-18.131 5.352-1.119-0.721-2.238-1.44-3.357-2.131-6.24 2.938-13.951 3.479-19.691-0.892-2.26 2.142-4.979 3.682-7.959 4.563-3.051 4.188-7.068 8.38-12.391 9.31-5.141 0.182-8.721-4.449-9.641-9.108-5.16 1.62-10.479 0.891-15.5-0.841-4.392 3.521-10.489 3.939-15.7 2.189-2.229 4.35-5.369 8.34-9.852 10.529-9.56 4.779-22.699 3.181-29.56-5.489-5.729-7.07-4.79-18.13 1.96-24.221-1-2.189-1.771-4.471-2.189-6.829-1.351-0.4-2.688-0.812-4.021-1.2-1.28 0.67-2.562 1.34-3.83 2.021-6.771 0.021-13.62-0.67-20.25 1.092-1.87-1.342-4.101-2.36-5.33-4.381-1.16-2.07-0.92-4.5-0.979-6.771-8.66-2.54-11.471-14.64-5.46-21.06 3.721-4.011 9.489-4.671 14.659-4.432 3.271-1.59 7.141-3.72 10.64-1.29 4.392 1.921 3.771 7.37 6.021 10.852 3.342 2.229 7.08-0.91 10.682-0.92-7.253-3.795-9.273-13.065-7.523-20.516z" fill="#010102"/>
<path d="m55.117 7.045c5.859-1.74 12.592-1.61 17.939 1.57 5.649 3.14 7.479 11.47 3.609 16.67-1.609 2.14-4.289 2.97-6.641 3.979 2.87 7.57 7.3 16.15 15.641 18.592 4.819 1.311 8.602-3.449 13.279-3 2.609 0.068 2.41 3.329 2.63 5.188-4.329 6.659-13.729 7.819-20.489 4.489-6.779-3.469-11.148-10.279-13.891-17.169-1.09-2.75-1.971-5.562-2.898-8.36-0.432 0.062-1.312 0.17-1.74 0.23 0.101 1.66 0.211 3.33 0.33 5 1.061 0.479 2.119 0.96 3.188 1.448-0.271 1.23-0.56 2.473-0.869 3.7-1.938 3.392-4.881 6.12-8.301 7.979-0.979-0.931-2.21-1.642-2.851-2.852 0.811-2.277 2.609-4.197 2.688-6.72 0.142-4.34-0.47-8.67-0.39-13.01 0.109-2.58-1.729-4.58-3.09-6.55 2.119-2.86 5.729-2.36 8.858-2.29 0.312 0.54 0.63 1.08 0.96 1.63-0.431 2.29-0.619 4.608-0.699 6.938 2.851-0.01 6.33 0.36 8.188-2.33 2.92-3.26 0.21-8.318-3.56-9.448-5.801-1.972-14.172-0.53-16.49 5.89 0.97 3.63 4.55 6.24 4.311 10.19-1.54 0.579-3.17 1.93-4.859 1.01-4.729-2.44-6.34-8.602-4.811-13.43 1.199-4.705 5.449-8.045 9.958-9.344z" fill="#F9FCFA"/>
<path d="m128.8 10.235c1.54-0.562 3.2-0.19 4.801-0.15 1.351 2.42 2.239 6.13-0.29 8.09-2 0.771-4.949 0.65-5.859-1.64-1.46-2.08-0.141-4.66 1.348-6.3z" fill="#F4FAF9"/>
<path d="m98.507 16.425c1.289-2.75 4.17-4.21 6.818-5.38 3.602 8.21 1.53 17.5 3.16 26.11 0.891 1.05 1.92 1.99 2.91 2.97 0.029 0.539 0.08 1.63 0.109 2.17-3.49 1.65-7.439 1.22-11.17 0.96-0.031-0.609-0.08-1.841-0.109-2.45 0.71-1.09 1.43-2.18 1.979-3.358-0.141-5.92-0.949-11.812-0.841-17.74-0.956-1.072-3.446-1.363-2.856-3.282z" fill="#F8FCF9"/>
<path d="m112.24 14.665c2.068-1.78 4.182-3.68 6.939-4.25 2.141 4.77 1.75 10.13 2.261 15.23 0.38 4.5-0.94 9.868 2.71 13.35h3.641c0.479-0.569 1.431-1.699 1.899-2.259 0.028-3.021 0.028-6.04-0.11-9.052-0.89-0.22-2.67-0.648-3.56-0.868 0.84-3.61 4.06-5.73 7.26-7.052 2.181 5.08 1.148 10.75 2.2 16.07 1.068 1.11 2.148 2.22 3.239 3.33-0.04 0.49-0.109 1.451-0.141 1.931-3.229 0.603-6.511 0.87-9.79 0.91-1.021-0.771-2.04-1.511-3.051-2.271-2.449 4.521-8.409 3.141-12.5 2.25 0.87-2.41 2.88-4.54 2.551-7.262-0.199-4.329-0.5-8.658-0.71-12.988-0.149-1.04-0.28-2.07-0.391-3.102-2.117-0.368-2.379-2.187-2.447-3.967z" fill="#F8FCF9"/>
<path d="m176.32 13.075c2.061-3.92 9.45-2.08 8.37 2.67-1.36 2.34-4.12 1.2-6.271 1.33 2.319 3.14 6.779 6.02 5.271 10.53-1.79 4.198-7.03 4.54-10.852 5.8-0.199 0.43-0.601 1.29-0.801 1.729 4.131 2.12 8.7-1.2 12.852 0.82 2.021 0.7 2.771 2.871 3.608 4.64-1.42 6.92-9.188 9.609-15.47 9.13-2.67-0.47-6.2-0.85-7.59-3.5-1.25-2.42 1.04-5.39 3.63-4.92 2.26 1.58 4.21 3.603 6.71 4.841 2.29-0.869 6.43-1.25 5.68-4.671-1.239-1.72-3.55-1.5-5.39-1.35-2.771 0.22-5.55 0.22-8.33 0.159-0.72-0.719-1.431-1.439-2.141-2.149-0.011-0.92-0.011-1.83-0.011-2.729 1.102-1.01 2.21-2.021 3.34-3-1.271-1.45-3.21-2.57-3.55-4.602-0.729-2.26 0.562-4.358 1.409-6.35 3.051-1.66 6.391-2.59 9.82-3.06-0.485-1.709-1.895-3.799-0.284-5.318z" fill="#F6FAF7"/>
<path d="m149.59 21.344c2.42-1.52 5.619-3.56 8.409-1.68 3.021 2.05 2.602 6.04 2.9 9.21-0.13 2.7 2.778 4.021 2.97 6.64-2.51 2.67-5.01 7.182-9.37 5.57 0.79-5.24 2.21-10.95-0.27-15.95-1.53 0.392-3.03 0.8-4.552 1.19-0.398 2.108-1.148 4.22-0.851 6.398 0.261 2.91 2.971 4.57 4.301 6.979-3.479 1.701-7.358 1.711-11.131 1.5-0.39-0.479-1.18-1.449-1.569-1.93 0.961-1 1.932-1.979 2.95-2.921 0.271-0.819 0.562-1.619 0.84-2.431-0.438-2.16-0.641-4.35-0.761-6.54-0.75-0.14-2.229-0.42-2.979-0.56 0.02-1.54 0.398-3.011 0.96-4.42 1.71-1.15 3.409-2.32 5.159-3.432 1.079 1.222 1.818 2.65 2.539 4.12 0.116-0.432 0.347-1.302 0.455-1.743z" fill="#F8FBF9"/>
<path d="m170.8 25.465c0.761-2.84 4.062-2.648 6.359-2.28 0.74 1.132 1.341 2.33 1.78 3.632-1.61 0.97-3.33 1.71-5.062 2.42-1.206-0.992-4.046-1.592-3.077-3.772z" fill="#030207"/>
<path d="m83.427 24.184c4.391-2.158 10.391-0.688 12.688 3.79 2.07 4.512 2.181 10.53-1.569 14.2-2.75 3.04-7.449 2.7-11.068 1.82-7.62-3.34-7.721-16.449-0.051-19.81z" fill="#F8FBF6"/>
<path d="m84.657 29.385c2.142-2.398 6.601-0.85 6.979 2.29 0.319 2.59 0.819 6.16-2 7.62-1.971 0.271-4.619 0.51-5.541-1.72-1.209-2.471-1.447-6.101 0.562-8.19z" fill="#020103"/>
<path d="m22.007 33.135c1.439-1.608 3.221-2.64 5.431-2.2-0.011 1.82 0.271 3.98-1.5 5.12-1.57 0.38-3.181 0.41-4.771 0.552 0.229 3.818 0.18 7.648 0.51 11.459 0.681 0.85 1.37 1.711 2.061 2.579-1.891 2.562-3.83 5.931-7.54 5.642 0.66-4.063 2.891-8.631 0.141-12.4-1.62 2.529-5.88 2.16-7.479-0.188-2.29-2.61-1.811-7.21 1.13-9.161 3.477-2.524 8.047-0.973 12.017-1.403z" fill="#F2FAF9"/>
<path d="m11.097 41.014c0.421-1.618 0.15-3.79 2.061-4.479 1.29-0.271 2.601-0.4 3.931-0.4 0.09 1.95 0.22 3.91 0.399 5.88-2.01-0.98-4.241-0.851-6.391-1.001z" fill="#030408"/>
<path d="m25.938 36.054c0.729 0.271 2.188 0.802 2.93 1.062 0.37 2.08 0.392 4.21 0.552 6.33 2.25-1.142 4.561-1.551 6.778-0.09 0.229 1.93 0.431 3.858 0.58 5.801 0.608 0.857 1.229 1.729 1.851 2.607-1.119 1.313-2.271 2.592-3.479 3.83-0.721-0.141-2.148-0.42-2.87-0.561 1.05-2.91 1.858-6.299-0.09-9.049-0.931 0.329-1.812 0.777-2.688 1.219 0.021 1.391 0.078 2.801 0.18 4.201 0.709 1.16 1.449 2.31 2.229 3.438-2.38 0.33-4.779 0.54-7.18 0.591-0.051-0.381-0.15-1.149-0.2-1.541 0.62-0.948 1.24-1.88 1.83-2.827-0.729-3.07-0.681-6.24-0.689-9.371-3.564-0.829-0.404-3.71 0.266-5.64z" fill="#F2F9F8"/>
<path d="m42.556 42.135c3.062-0.607 7.262-0.34 7.979 3.45 1.2 4.319-4.56 3.78-7.26 3.899 0.142 0.438 0.431 1.318 0.58 1.76 2.312-0.049 4.438-1.069 6.72-1.33 0.771 5.461-8.699 6.291-10.18 1.441-1.808-3.261-0.367-6.871 2.161-9.22z" fill="#F1FBF9"/>
<path d="m63.126 51.354c2.09 0.31 3.979-2.37 5.949-0.852 2.682 2.25 4.311 5.84 4.182 9.352-0.881 0.729-1.892 1.25-2.881 1.8-2.521-2.102-5.051-4.3-8.188-5.379-1.222 0.438-2.45 0.879-3.66 1.329-0.16 1.5-1.83 3.511 0.2 4.408 5.199 3.012 11.55 3.682 16.311 7.592 2.819 3.771 3.801 8.47 3.35 13.108-3 11.53-19.148 14.66-27.469 7.021-5.201-4.29-5.25-14.16 1.01-17.512 3.279-2.028 8.07-2 10.561 1.25-0.46 1.092-0.908 2.19-1.359 3.29-2.229 0.762-4.959 0.88-6.5 2.88-0.771 2.82 0.371 6.183 3.211 7.342 3.76 1.658 8.858 1.278 11.83-1.75 3.358-3.83 2.351-10.54-2.201-12.989-4.469-2.37-9.68-3.19-13.898-6.07-3.311-2.29-3.88-7.21-1.488-10.357 2.312-3.682 6.902-5.022 11.04-4.463z" fill="#F8FCF9"/>
<path d="m167.72 56.375c2.729-2.438 6.829 0 9.619-2.32 0.511 0 1.54-0.01 2.051-0.01 1.358 2.142 2.409 4.47 3.261 6.88-2.9 2.61-5.852-0.06-8.41-1.67-0.46 0.062-1.399 0.159-1.859 0.22-0.011 0.78-0.021 1.57-0.011 2.37 3.29 1.5 7.312 1.88 9.92 4.602 1.99 2.12 0.57 5-0.01 7.421-2.63 2.26-5.99 2.88-9.359 2.278-1.21 0.591-2.489 1.75-3.921 1.142-2.38-2-3.92-4.95-3.818-8.091 3.63-1.909 6.431 1.631 9.659 2.729 2.381 0.96 1.852-1.989 2.131-3.271-3.392-1.09-6.83-2.102-10.011-3.729-0.359-0.58-1.08-1.739-1.438-2.318-0.043-2.264 0.406-4.683 2.196-6.233z" fill="#F7FAF9"/>
<path d="m128.09 59.744c2.771-1.64 6.182-3.42 9.352-1.64 6.108 3.438 6.85 12.71 2.909 18.068-1.949 3.07-6.562 3.979-9.471 1.771-1.71-0.88-1.851-3.682-0.319-4.79 1.431-0.21 2.891-0.3 4.359-0.279 2.33-2.24 2.931-5.36 1.409-8.25-0.56-0.391-1.68-1.17-2.239-1.561-2.141 0.021-4.858 0.55-5.351 3.04-0.37 3.34-0.12 6.721 0.011 10.079-0.051 1.931 1.92 2.881 2.811 4.392 0.461 1.567-1.051 2.64-1.841 3.77-1.931 1.852-3.988 4.57-7.021 3.762-1.22-2.75 0.5-5.609 0.42-8.42-0.181-4.512-0.771-8.99-0.649-13.5-0.971-0.472-1.938-0.932-2.891-1.392-0.09-0.561-0.271-1.681-0.35-2.24 1.959-2.118 4.1-4.5 7.18-4.737 0.422 0.478 1.262 1.447 1.681 1.927z" fill="#F8FCF9"/>
<path d="m148.03 58.654c4.101-4.142 12.25-3.352 14.819 2.141 1.011 2.13 1.641 5.82-1.04 6.95-3.319 1.729-7.109 1.22-10.689 1.25 0.091 0.51 0.29 1.55 0.391 2.06 3.95 2.92 7.642-1.22 11.771-1.08 0.08 1.25 0.34 2.521 0.181 3.79-1.479 2.643-4.699 3.271-7.319 4.21-4.971 0.07-9.979-3.118-10.761-8.25-1.153-3.832-0.113-8.171 2.647-11.071z" fill="#F8FBF9"/>
<path d="m100.79 62.385c2.521-3.83 7.761-4.061 11.75-2.898 4.96 1.83 5.931 7.761 5.779 12.398-0.87 2.71-1.99 5.771-4.75 7.102-2.67 1.561-5.83 0.96-8.761 1.068-6.389-3.151-8.399-12.09-4.018-17.67z" fill="#F9FDF8"/>
<path d="m83.407 61.974c1.851-1.64 4.36-2.038 6.649-2.698 2.109 0.738 4.529 1.16 6.149 2.83 1.21 1.63 0.89 4.158-1.011 5.148-2.729-1.101-5.43-2.568-8.471-2.101-1.709 3.03-2.471 7.54 0.711 9.898 3.398 1.67 6.6-1.76 10.109-1.22 0.068 1.779 0.909 4.21-1.052 5.319-2.659 2.54-6.63 2.688-10.028 1.989-7.525-2.724-9.096-14.184-3.056-19.165z" fill="#F7FCF8"/>
<path d="m151.86 61.385c2.55-0.58 6.29-1.198 6.479 2.48-2.688 0.77-5.471 1.147-8.261 1.289 0.572-1.269 1.171-2.519 1.782-3.769z" fill="#03080A"/>
<path d="m105.85 64.245c1.699-0.78 3.58-0.221 5.351 0.01 1.312 2.521 2.351 5.439 1.2 8.25-1.04 3.47-6.721 3.55-7.9 0.09-0.411-2.781-1.01-6.251 1.349-8.35z" fill="#040304"/>
</svg>
