<svg width="117" height="43" viewBox="0 0 117 43" fill="none" xmlns="http://www.w3.org/2000/svg">
<g clip-path="url(#clip0_523_756)">
<path d="M60.4048 14.2426L65.9712 13.8865C66.0982 14.7872 66.331 15.4574 66.712 15.9391C67.3258 16.6931 68.1724 17.0702 69.2941 17.0702C70.1196 17.0702 70.7757 16.8817 71.2201 16.4837C71.6434 16.1695 71.8974 15.6668 71.8974 15.1432C71.8974 14.6405 71.6646 14.1588 71.2625 13.8446C70.8392 13.4676 69.8444 13.0906 68.2782 12.7555C65.7173 12.19 63.8759 11.436 62.7965 10.4725C61.7171 9.57186 61.1033 8.25233 61.1456 6.84902C61.1456 5.88555 61.4419 4.92208 61.9922 4.12617C62.6272 3.22554 63.4949 2.51341 64.532 2.11546C65.6538 1.63372 67.22 1.38239 69.1883 1.38239C71.6011 1.38239 73.4425 1.82223 74.7124 2.72286C75.9823 3.60255 76.7442 5.02681 76.977 6.97469L71.4741 7.28886C71.326 6.45106 71.0297 5.84366 70.5429 5.44571C70.0561 5.04775 69.4211 4.85925 68.5957 4.85925C67.9184 4.85925 67.4105 5.00586 67.0718 5.27815C66.7543 5.52949 66.5427 5.9065 66.5639 6.3254C66.5639 6.63957 66.7332 6.9328 66.9872 7.1213C67.2623 7.37264 67.9184 7.60304 68.9555 7.81249C71.5165 8.35706 73.3366 8.90163 74.4584 9.46714C75.5801 10.0327 76.3844 10.7238 76.8712 11.5407C77.3792 12.3785 77.6331 13.342 77.612 14.3264C77.612 15.4993 77.2733 16.6722 76.5961 17.6566C75.8976 18.6829 74.924 19.4788 73.7811 19.9606C72.5747 20.4842 71.0508 20.7565 69.2306 20.7565C66.0136 20.7565 63.7912 20.1491 62.5425 18.9133C61.2938 17.6776 60.553 16.1276 60.4048 14.2426ZM1.33339 20.4423V1.7175H11.0904C12.8895 1.7175 14.2864 1.86412 15.2388 2.17829C16.17 2.47152 16.9955 3.07893 17.5458 3.89578C18.1596 4.79641 18.4559 5.84366 18.4347 6.9328C18.4982 8.77595 17.5458 10.5353 15.9161 11.4569C15.2811 11.813 14.5827 12.0643 13.8631 12.19C14.3922 12.3366 14.9213 12.5879 15.3869 12.8812C15.7467 13.1744 16.0431 13.5095 16.3182 13.8656C16.6357 14.2216 16.9108 14.6196 17.1436 15.0385L19.9797 20.4632H13.3339L10.2015 14.7034C9.79939 13.9703 9.46074 13.4886 9.14327 13.2582C8.71997 12.9649 8.21201 12.8183 7.70405 12.8183H7.19609V20.4214H1.33339V20.4423ZM7.19609 9.29958H9.67239C10.2015 9.25769 10.7095 9.17391 11.2174 9.04824C11.5984 8.98541 11.937 8.77596 12.1699 8.46178C12.7413 7.70776 12.6567 6.63957 11.9582 5.99028C11.5772 5.6761 10.8365 5.50854 9.77822 5.50854H7.19609V9.29958ZM0 36.4861L5.56639 36.1301C5.69338 37.0307 5.92619 37.7009 6.30716 38.1827C6.89978 38.9367 7.76755 39.3346 8.88929 39.3346C9.71472 39.3346 10.3708 39.1461 10.8153 38.7482C11.2386 38.4131 11.4926 37.9313 11.4926 37.4077C11.4926 36.905 11.2598 36.4233 10.8576 36.1091C10.4343 35.7321 9.43958 35.3551 7.85221 35.02C5.29124 34.4545 3.44989 33.7005 2.37048 32.737C1.29106 31.8364 0.677279 30.5168 0.719609 29.1135C0.719609 28.15 1.01592 27.1866 1.56621 26.3907C2.20116 25.49 3.06892 24.7779 4.10601 24.3799C5.22775 23.8982 6.79396 23.6469 8.7623 23.6469C11.1751 23.6469 13.0165 24.0867 14.2864 24.9874C15.5563 25.888 16.297 27.2913 16.5298 29.2392L11.027 29.5534C10.8788 28.7156 10.5825 28.1082 10.0957 27.7102C9.63006 27.3122 8.97395 27.1237 8.14852 27.1447C7.47124 27.1447 6.96328 27.2913 6.62464 27.5845C6.286 27.8359 6.09551 28.2129 6.11668 28.6318C6.11668 28.9459 6.286 29.2392 6.53998 29.4277C6.81512 29.679 7.47124 29.9094 8.50832 30.1189C11.0693 30.6634 12.8895 31.208 14.0112 31.7735C15.133 32.339 15.9372 33.0302 16.424 33.8471C16.932 34.6849 17.186 35.6483 17.186 36.6118C17.186 37.7847 16.8262 38.9367 16.17 39.9211C15.4716 40.9474 14.498 41.7433 13.3551 42.2251C12.1487 42.7487 10.6248 43.021 8.80463 43.021C5.58755 43.021 3.36523 42.4136 2.1165 41.1778C0.867764 39.9211 0.16932 38.3712 0 36.4861H0Z" fill="#48409E"/>
<path d="M28.1494 35.02L33.2713 36.5489C32.9962 37.8266 32.4247 39.0414 31.6416 40.1096C30.922 41.0521 29.9696 41.7852 28.8902 42.2669C27.7896 42.7487 26.3927 43 24.6995 43C22.6465 43 20.9533 42.7068 19.6622 42.1203C18.35 41.5338 17.2283 40.4866 16.2758 38.9995C15.3234 37.5124 14.8578 35.6064 14.8578 33.2815C14.8578 30.1817 15.6832 27.794 17.3553 26.1393C19.0273 24.4846 21.3766 23.6469 24.4244 23.6469C26.816 23.6469 28.6785 24.1286 30.0542 25.0711C31.4088 26.0346 32.4247 27.5007 33.102 29.4695L27.9377 30.6006C27.8108 30.1607 27.6203 29.7209 27.3663 29.3439C27.0488 28.904 26.6467 28.5689 26.1599 28.3176C25.6731 28.0662 25.1228 27.9615 24.5725 27.9615C23.2391 27.9615 22.2232 28.4851 21.5248 29.5533C20.9956 30.3283 20.7205 31.564 20.7205 33.2396C20.7205 35.3132 21.038 36.7375 21.6729 37.5124C22.3079 38.2874 23.1968 38.6644 24.3609 38.6644C25.4826 38.6644 26.3292 38.3502 26.9007 37.7428C27.4721 37.0935 27.8954 36.1929 28.1494 35.02ZM40.1076 23.961H45.9491V30.5168H52.341V23.961H58.2248V42.6858H52.341V35.1037H45.9491V42.6858H40.1076V23.961Z" fill="#48409E"/>
<path d="M57.4206 33.3234C57.4206 30.2655 58.2884 27.8777 60.0027 26.1812C61.7171 24.4847 64.1299 23.6259 67.1988 23.6259C70.3524 23.6259 72.7652 24.4637 74.4796 26.1393C76.1939 27.8149 77.0405 30.1607 77.0405 33.1768C77.0405 35.376 76.6596 37.1564 75.9188 38.5597C75.1992 39.942 74.0774 41.0731 72.7017 41.8271C71.2837 42.602 69.527 43 67.4316 43C65.294 43 63.5373 42.6649 62.1404 41.9946C60.7012 41.2825 59.5159 40.1724 58.7328 38.811C57.8651 37.3449 57.4206 35.5227 57.4206 33.3234ZM63.2621 33.3444C63.2621 35.2294 63.6219 36.5908 64.3204 37.4286C65.0188 38.2455 65.9924 38.6644 67.22 38.6644C68.4687 38.6644 69.4423 38.2664 70.1407 37.4496C70.8392 36.6327 71.1778 35.1875 71.1778 33.093C71.1778 31.3337 70.818 30.0351 70.0984 29.2392C69.3788 28.4223 68.4052 28.0244 67.1776 28.0244C66.0982 27.9825 65.0612 28.4433 64.3415 29.2601C63.6219 30.077 63.2621 31.4384 63.2621 33.3444ZM83.0302 33.3234C83.0302 30.2655 83.898 27.8777 85.6123 26.1812C87.3267 24.4847 89.7395 23.6259 92.8084 23.6259C95.962 23.6259 98.396 24.4637 100.089 26.1393C101.782 27.8149 102.65 30.1607 102.65 33.1768C102.65 35.376 102.269 37.1564 101.528 38.5597C100.809 39.942 99.6871 41.0731 98.3113 41.8271C96.8933 42.602 95.1366 43 93.0413 43C90.9036 43 89.1469 42.6649 87.75 41.9946C86.3108 41.2825 85.1256 40.1724 84.3424 38.811C83.4747 37.3449 83.0302 35.5227 83.0302 33.3234ZM88.8718 33.3444C88.8718 35.2294 89.2316 36.5908 89.93 37.4286C90.6284 38.2455 91.602 38.6644 92.8296 38.6644C94.0783 38.6644 95.0519 38.2664 95.7504 37.4496C96.4488 36.6327 96.7875 35.1875 96.7875 33.093C96.7875 31.3337 96.4277 30.0351 95.708 29.2392C94.9884 28.4223 94.0148 28.0244 92.7873 28.0244C91.7079 27.9825 90.6496 28.4433 89.9512 29.2601C89.2316 30.077 88.8718 31.4384 88.8718 33.3444Z" fill="#48409E"/>
<path d="M102.036 23.9611H107.878V38.078H117V42.6859H102.015V23.9611H102.036Z" fill="#48409E"/>
</g>
<defs>
<clipPath id="clip0_523_756">
<rect width="117" height="43" fill="white"/>
</clipPath>
</defs>
</svg>
