<svg width="25" height="25" viewBox="0 0 25 25" fill="none" xmlns="http://www.w3.org/2000/svg">
<path d="M21.935 19.3588C21.3453 18.7939 20.7713 18.2127 20.2137 17.6161C19.7453 17.1401 19.4633 16.7938 19.4633 16.7938L15.9376 15.1103C17.3491 13.5094 18.1281 11.4486 18.1285 9.31427C18.1285 4.45509 14.1747 0.5 9.31427 0.5C4.45383 0.5 0.5 4.45509 0.5 9.31427C0.5 14.1735 4.45383 18.1285 9.31427 18.1285C11.5342 18.1285 13.5577 17.2975 15.1103 15.9388L16.7938 19.4645C16.7938 19.4645 17.1401 19.7466 17.6161 20.215C18.1034 20.6721 18.7443 21.2903 19.3588 21.9363L21.0687 23.6891L21.8293 24.5025L24.5 21.8318L23.6866 21.0712C23.2093 20.6028 22.5722 19.9808 21.935 19.3588V19.3588ZM9.31427 15.6102C5.84271 15.6102 3.01836 12.7858 3.01836 9.31427C3.01836 5.84271 5.84271 3.01836 9.31427 3.01836C12.7858 3.01836 15.6102 5.84271 15.6102 9.31427C15.6102 12.7858 12.7858 15.6102 9.31427 15.6102Z"/>
</svg>
